<?xml version="1.0" standalone="no"?><!DOCTYPE svg PUBLIC "-//W3C//DTD SVG 1.1//EN" "http://www.w3.org/Graphics/SVG/1.1/DTD/svg11.dtd"><svg class="icon" height="512" viewBox="0 0 1024 1024" version="1.1" xmlns="http://www.w3.org/2000/svg"><path d="M436.736 631.296c-14.848 33.28-48.128 56.32-87.04 56.32-52.736 0-95.744-43.008-95.744-95.744 0-52.736 43.008-95.744 95.744-95.744 38.912 0 72.192 23.04 87.04 56.32h73.728c-17.408-73.216-83.456-128-161.792-128-91.648 0-166.4 74.752-166.4 166.4s74.752 166.4 166.4 166.4c77.824 0 143.36-53.76 161.28-126.464h-73.216zM714.24 424.96c-35.328 0-67.584 10.752-94.72 29.696V266.24h-71.68v481.28h71.68v-19.456c27.136 18.432 59.392 29.696 94.72 29.696C805.888 757.76 880.64 683.008 880.64 591.36S805.888 424.96 714.24 424.96z m1.024 262.656c-52.736 0-95.744-43.008-95.744-95.744 0-52.736 43.008-95.744 95.744-95.744s95.744 43.008 95.744 95.744c-0.512 53.248-43.008 95.744-95.744 95.744z" /></svg>